<?xml version="1.0" standalone="no"?>
<!DOCTYPE svg PUBLIC "-//W3C//DTD SVG 20010904//EN"
 "http://www.w3.org/TR/2001/REC-SVG-20010904/DTD/svg10.dtd">
<svg version="1.0" xmlns="http://www.w3.org/2000/svg"
 width="728.000000pt" height="728.000000pt" viewBox="0 0 728.000000 728.000000"
 preserveAspectRatio="xMidYMid meet">
<metadata>
Created by potrace 1.14, written by Peter Selinger 2001-2017
</metadata>
<g transform="translate(0.000000,728.000000) scale(0.100000,-0.100000)"
fill="#000000" stroke="none">
<path d="M3590 7251 c-26 -29 -257 -274 -325 -346 -22 -23 -96 -101 -165 -175
-69 -73 -143 -152 -165 -175 -22 -24 -94 -100 -160 -170 -66 -71 -136 -145
-155 -165 -95 -100 -305 -323 -366 -389 -38 -41 -89 -95 -114 -121 -25 -26
-61 -63 -80 -84 l-35 -37 0 -880 0 -879 -503 -503 -502 -502 0 -1413 0 -1413
89 2 c106 2 172 18 261 61 74 37 184 140 215 203 11 22 24 43 28 46 5 3 18 39
29 80 20 72 21 97 22 1122 l1 1047 165 165 c91 91 172 169 180 174 13 8 15
-121 15 -1140 0 -760 3 -1149 10 -1150 17 -2 138 2 165 5 74 8 173 48 240 95
40 29 140 132 140 144 0 5 9 21 19 36 23 32 57 130 65 186 3 22 5 990 6 2150
l0 2110 91 95 c152 161 313 332 377 400 33 36 82 88 109 116 73 77 306 324
347 368 l37 40 528 -528 528 -528 0 -2096 c1 -1154 3 -2110 6 -2127 17 -116
71 -219 157 -305 86 -87 178 -134 298 -155 47 -8 171 -10 178 -3 3 4 6 504 6
1112 0 608 3 1106 6 1106 4 0 68 -61 142 -136 l135 -135 1 -1032 c0 -568 4
-1052 8 -1077 10 -66 54 -167 97 -226 105 -143 257 -218 452 -223 l87 -2 0
1413 0 1413 -464 464 -464 464 0 904 c0 497 -2 906 -4 908 -13 16 -1710 1715
-1711 1714 -1 0 -13 -13 -27 -28z"/>
</g>
</svg>
