<svg xmlns="http://www.w3.org/2000/svg" xmlns:xlink="http://www.w3.org/1999/xlink" id="Layer_2" data-name="Layer 2" viewBox="0 0 259.75 364.19"><defs><linearGradient id="linear-gradient" x1="0" x2="130.76" y1="182.1" y2="182.1" gradientUnits="userSpaceOnUse"><stop offset="0" stop-color="#7978ff"/><stop offset="1" stop-color="#4708ce"/></linearGradient><linearGradient xlink:href="#linear-gradient" id="linear-gradient-2" x1="-2548.81" x2="-2679.55" y1="183.35" y2="181.38" gradientTransform="matrix(-1 0 0 1 -2437.06 0)"/><style>.cls-1{fill:url(#linear-gradient)}.cls-2{fill:url(#linear-gradient-2)}</style></defs><g id="Layer_1-2" data-name="Layer 1"><path d="M129.87 0c.29 15.38.59 30.76.88 46.15l-48.2 51.14v209.24c0 15.02-12.22 27.24-27.24 27.24h-5.04V218.16l-18.01 18v100.8c0 15.02-12.22 27.24-27.24 27.24H0V222.8l50.28-50.27V84.49L129.87 0Z" class="cls-1"/><path d="M129.87 0c-.29 15.38-.59 30.76-.88 46.15l48.2 51.14v209.24c0 15.02 12.22 27.24 27.24 27.24h5.04V218.16l18.01 18v100.8c0 15.02 12.22 27.24 27.24 27.24h5.03V222.8l-50.28-50.27V84.49L129.87 0Z" class="cls-2"/></g></svg>